<mxfile host="app.diagrams.net" modified="2020-09-22T09:48:24.942Z" agent="5.0 (Windows NT 10.0; Win64; x64) AppleWebKit/537.36 (KHTML, like Gecko) Chrome/85.0.4183.102 Safari/537.36" etag="6cKt3QRKdEuI-WWlkSf3" version="13.7.3" type="github">
  <diagram id="hAoRSVDY9YP-wo0BsEd_" name="Page-1">
    <mxGraphModel dx="1422" dy="1963" grid="1" gridSize="10" guides="1" tooltips="1" connect="1" arrows="1" fold="1" page="1" pageScale="1" pageWidth="827" pageHeight="1169" math="0" shadow="0">
      <root>
        <mxCell id="0" />
        <mxCell id="1" parent="0" />
        <mxCell id="wmEAvZdLVxUYEZy0zLaF-1" value="&lt;font style=&quot;font-size: 15px&quot;&gt;ppui 模块&lt;/font&gt;" style="rounded=1;whiteSpace=wrap;html=1;strokeWidth=2;" vertex="1" parent="1">
          <mxGeometry x="210" y="68" width="250" height="192" as="geometry" />
        </mxCell>
        <mxCell id="wmEAvZdLVxUYEZy0zLaF-2" value="&lt;font style=&quot;font-size: 15px&quot;&gt;start&lt;/font&gt;" style="shape=mxgraph.flowchart.terminator;strokeWidth=2;gradientColor=none;gradientDirection=north;fontStyle=0;html=1;" vertex="1" parent="1">
          <mxGeometry x="581.13" y="30" width="99.75" height="30" as="geometry" />
        </mxCell>
        <mxCell id="wmEAvZdLVxUYEZy0zLaF-3" value="&lt;font style=&quot;font-size: 15px&quot;&gt;下载日志数据&lt;/font&gt;" style="shape=mxgraph.flowchart.data;strokeWidth=2;gradientColor=none;gradientDirection=north;fontStyle=0;html=1;" vertex="1" parent="1">
          <mxGeometry x="551.5" y="111" width="159" height="80" as="geometry" />
        </mxCell>
        <mxCell id="wmEAvZdLVxUYEZy0zLaF-4" value="" style="edgeStyle=orthogonalEdgeStyle;rounded=0;orthogonalLoop=1;jettySize=auto;html=1;strokeWidth=2;" edge="1" parent="1">
          <mxGeometry relative="1" as="geometry">
            <mxPoint x="629.25" y="61" as="sourcePoint" />
            <mxPoint x="629.25" y="111" as="targetPoint" />
          </mxGeometry>
        </mxCell>
        <mxCell id="wmEAvZdLVxUYEZy0zLaF-5" value="&lt;font style=&quot;font-size: 15px&quot;&gt;实例1&lt;/font&gt;" style="ellipse;whiteSpace=wrap;html=1;strokeWidth=2;" vertex="1" parent="1">
          <mxGeometry x="220" y="80" width="80" height="55" as="geometry" />
        </mxCell>
        <mxCell id="wmEAvZdLVxUYEZy0zLaF-6" value="&lt;font style=&quot;font-size: 15px&quot;&gt;实例2&lt;/font&gt;" style="ellipse;whiteSpace=wrap;html=1;strokeWidth=2;" vertex="1" parent="1">
          <mxGeometry x="220" y="191" width="80" height="55" as="geometry" />
        </mxCell>
        <mxCell id="wmEAvZdLVxUYEZy0zLaF-7" value="&lt;font style=&quot;font-size: 15px&quot;&gt;实例3&lt;/font&gt;" style="ellipse;whiteSpace=wrap;html=1;strokeWidth=2;" vertex="1" parent="1">
          <mxGeometry x="370" y="123.5" width="80" height="55" as="geometry" />
        </mxCell>
        <mxCell id="wmEAvZdLVxUYEZy0zLaF-8" value="" style="endArrow=classic;html=1;exitX=1;exitY=0.5;exitDx=0;exitDy=0;entryX=0.154;entryY=0.163;entryDx=0;entryDy=0;entryPerimeter=0;strokeWidth=4;" edge="1" parent="1" source="wmEAvZdLVxUYEZy0zLaF-5" target="wmEAvZdLVxUYEZy0zLaF-3">
          <mxGeometry width="50" height="50" relative="1" as="geometry">
            <mxPoint x="450" y="80" as="sourcePoint" />
            <mxPoint x="500" y="30" as="targetPoint" />
          </mxGeometry>
        </mxCell>
        <mxCell id="wmEAvZdLVxUYEZy0zLaF-9" value="`" style="endArrow=classic;html=1;exitX=1;exitY=0.5;exitDx=0;exitDy=0;strokeWidth=4;entryX=0.095;entryY=0.5;entryDx=0;entryDy=0;entryPerimeter=0;" edge="1" parent="1" source="wmEAvZdLVxUYEZy0zLaF-7" target="wmEAvZdLVxUYEZy0zLaF-3">
          <mxGeometry width="50" height="50" relative="1" as="geometry">
            <mxPoint x="430.06" y="191" as="sourcePoint" />
            <mxPoint x="560" y="155" as="targetPoint" />
          </mxGeometry>
        </mxCell>
        <mxCell id="wmEAvZdLVxUYEZy0zLaF-10" value="" style="edgeStyle=orthogonalEdgeStyle;rounded=0;orthogonalLoop=1;jettySize=auto;html=1;strokeWidth=2;" edge="1" parent="1">
          <mxGeometry relative="1" as="geometry">
            <mxPoint x="630.5" y="190" as="sourcePoint" />
            <mxPoint x="630.5" y="240" as="targetPoint" />
          </mxGeometry>
        </mxCell>
        <mxCell id="wmEAvZdLVxUYEZy0zLaF-11" value="" style="endArrow=classic;html=1;exitX=1;exitY=0.5;exitDx=0;exitDy=0;entryX=0.047;entryY=0.738;entryDx=0;entryDy=0;entryPerimeter=0;strokeWidth=4;" edge="1" parent="1" source="wmEAvZdLVxUYEZy0zLaF-6" target="wmEAvZdLVxUYEZy0zLaF-3">
          <mxGeometry width="50" height="50" relative="1" as="geometry">
            <mxPoint x="330" y="117.5" as="sourcePoint" />
            <mxPoint x="579.944" y="153" as="targetPoint" />
          </mxGeometry>
        </mxCell>
        <mxCell id="wmEAvZdLVxUYEZy0zLaF-12" value="&lt;font style=&quot;font-size: 16px&quot;&gt;wget bcp&lt;/font&gt;" style="text;html=1;align=center;verticalAlign=middle;resizable=0;points=[];autosize=1;rotation=5;" vertex="1" parent="1">
          <mxGeometry x="476.01" y="91" width="80" height="20" as="geometry" />
        </mxCell>
        <mxCell id="wmEAvZdLVxUYEZy0zLaF-13" value="&lt;font style=&quot;font-size: 16px&quot;&gt;wget bcp&lt;/font&gt;" style="text;html=1;align=center;verticalAlign=middle;resizable=0;points=[];autosize=1;rotation=5;" vertex="1" parent="1">
          <mxGeometry x="476.01" y="123.5" width="80" height="20" as="geometry" />
        </mxCell>
        <mxCell id="wmEAvZdLVxUYEZy0zLaF-14" value="&lt;font style=&quot;font-size: 16px&quot;&gt;wget bcp&lt;/font&gt;" style="text;html=1;align=center;verticalAlign=middle;resizable=0;points=[];autosize=1;rotation=-15;" vertex="1" parent="1">
          <mxGeometry x="465" y="180.5" width="80" height="20" as="geometry" />
        </mxCell>
        <mxCell id="wmEAvZdLVxUYEZy0zLaF-15" value="&lt;font style=&quot;font-size: 15px&quot;&gt;压缩&lt;/font&gt;" style="shape=mxgraph.flowchart.data;strokeWidth=2;gradientColor=none;gradientDirection=north;fontStyle=0;html=1;" vertex="1" parent="1">
          <mxGeometry x="544" y="240" width="159" height="80" as="geometry" />
        </mxCell>
        <mxCell id="wmEAvZdLVxUYEZy0zLaF-16" value="" style="edgeStyle=orthogonalEdgeStyle;rounded=0;orthogonalLoop=1;jettySize=auto;html=1;strokeWidth=2;" edge="1" parent="1">
          <mxGeometry relative="1" as="geometry">
            <mxPoint x="630.5" y="320" as="sourcePoint" />
            <mxPoint x="630.5" y="370" as="targetPoint" />
          </mxGeometry>
        </mxCell>
        <mxCell id="wmEAvZdLVxUYEZy0zLaF-17" value="&lt;font style=&quot;font-size: 15px&quot;&gt;结束&lt;/font&gt;" style="shape=mxgraph.flowchart.terminator;strokeWidth=2;gradientColor=none;gradientDirection=north;fontStyle=0;html=1;" vertex="1" parent="1">
          <mxGeometry x="570" y="503.5" width="120" height="30" as="geometry" />
        </mxCell>
        <mxCell id="wmEAvZdLVxUYEZy0zLaF-18" value="" style="endArrow=classic;html=1;exitX=1;exitY=0.5;exitDx=0;exitDy=0;exitPerimeter=0;entryX=1;entryY=0.5;entryDx=0;entryDy=0;entryPerimeter=0;strokeWidth=2;" edge="1" parent="1" source="wmEAvZdLVxUYEZy0zLaF-17" target="wmEAvZdLVxUYEZy0zLaF-2">
          <mxGeometry width="50" height="50" relative="1" as="geometry">
            <mxPoint x="518.99" y="563.5" as="sourcePoint" />
            <mxPoint x="679.8700000000001" y="178.5" as="targetPoint" />
            <Array as="points">
              <mxPoint x="838.99" y="518.5" />
              <mxPoint x="839" y="45" />
            </Array>
          </mxGeometry>
        </mxCell>
        <mxCell id="wmEAvZdLVxUYEZy0zLaF-20" value="&lt;span style=&quot;color: rgb(0 , 0 , 0) ; font-family: &amp;#34;helvetica&amp;#34; ; font-size: 18px ; font-style: normal ; font-weight: 400 ; letter-spacing: normal ; text-align: center ; text-indent: 0px ; text-transform: none ; word-spacing: 0px ; background-color: rgb(248 , 249 , 250) ; display: inline ; float: none&quot;&gt;Crontab 调度&lt;br&gt;1 次/min&lt;br&gt;&lt;/span&gt;" style="edgeLabel;html=1;align=center;verticalAlign=middle;resizable=0;points=[];" vertex="1" connectable="0" parent="wmEAvZdLVxUYEZy0zLaF-18">
          <mxGeometry x="0.1325" y="3" relative="1" as="geometry">
            <mxPoint x="4" y="14.51" as="offset" />
          </mxGeometry>
        </mxCell>
        <mxCell id="wmEAvZdLVxUYEZy0zLaF-21" value="&lt;font style=&quot;font-size: 15px&quot;&gt;清理过期文件&lt;/font&gt;" style="shape=mxgraph.flowchart.data;strokeWidth=2;gradientColor=none;gradientDirection=north;fontStyle=0;html=1;" vertex="1" parent="1">
          <mxGeometry x="544" y="370" width="159" height="80" as="geometry" />
        </mxCell>
        <mxCell id="wmEAvZdLVxUYEZy0zLaF-22" value="" style="edgeStyle=orthogonalEdgeStyle;rounded=0;orthogonalLoop=1;jettySize=auto;html=1;strokeWidth=2;" edge="1" parent="1">
          <mxGeometry relative="1" as="geometry">
            <mxPoint x="629.5" y="450" as="sourcePoint" />
            <mxPoint x="629.5" y="500" as="targetPoint" />
          </mxGeometry>
        </mxCell>
        <mxCell id="wmEAvZdLVxUYEZy0zLaF-24" value="" style="endArrow=classic;html=1;strokeWidth=4;" edge="1" parent="1">
          <mxGeometry width="50" height="50" relative="1" as="geometry">
            <mxPoint x="23" as="sourcePoint" />
            <mxPoint x="93" as="targetPoint" />
          </mxGeometry>
        </mxCell>
        <mxCell id="wmEAvZdLVxUYEZy0zLaF-25" value="&lt;font style=&quot;font-size: 18px&quot;&gt;Data flow&lt;/font&gt;" style="text;html=1;align=center;verticalAlign=middle;resizable=0;points=[];autosize=1;" vertex="1" parent="1">
          <mxGeometry x="93" y="-10" width="90" height="20" as="geometry" />
        </mxCell>
        <mxCell id="wmEAvZdLVxUYEZy0zLaF-26" value="" style="edgeStyle=orthogonalEdgeStyle;rounded=0;orthogonalLoop=1;jettySize=auto;html=1;strokeWidth=2;" edge="1" parent="1">
          <mxGeometry relative="1" as="geometry">
            <mxPoint x="23" y="29" as="sourcePoint" />
            <mxPoint x="83" y="29" as="targetPoint" />
          </mxGeometry>
        </mxCell>
        <mxCell id="wmEAvZdLVxUYEZy0zLaF-27" value="&lt;font style=&quot;font-size: 18px&quot;&gt;Control flow&lt;/font&gt;" style="text;html=1;align=center;verticalAlign=middle;resizable=0;points=[];autosize=1;" vertex="1" parent="1">
          <mxGeometry x="93" y="20" width="110" height="20" as="geometry" />
        </mxCell>
        <mxCell id="wmEAvZdLVxUYEZy0zLaF-28" value="&lt;font style=&quot;font-size: 15px&quot;&gt;start&lt;/font&gt;" style="shape=mxgraph.flowchart.terminator;strokeWidth=2;gradientColor=none;gradientDirection=north;fontStyle=0;html=1;strokeColor=#3333FF;" vertex="1" parent="1">
          <mxGeometry x="239.62" y="370" width="99.75" height="30" as="geometry" />
        </mxCell>
        <mxCell id="wmEAvZdLVxUYEZy0zLaF-29" value="&lt;font style=&quot;font-size: 15px&quot;&gt;下载日志数据&lt;/font&gt;" style="shape=mxgraph.flowchart.data;strokeWidth=2;gradientColor=none;gradientDirection=north;fontStyle=0;html=1;strokeColor=#3333FF;" vertex="1" parent="1">
          <mxGeometry x="210" y="450" width="159" height="80" as="geometry" />
        </mxCell>
        <mxCell id="wmEAvZdLVxUYEZy0zLaF-30" value="" style="edgeStyle=orthogonalEdgeStyle;rounded=0;orthogonalLoop=1;jettySize=auto;html=1;strokeWidth=2;strokeColor=#3333FF;" edge="1" parent="1">
          <mxGeometry relative="1" as="geometry">
            <mxPoint x="288.49" y="400" as="sourcePoint" />
            <mxPoint x="288.49" y="450" as="targetPoint" />
          </mxGeometry>
        </mxCell>
        <mxCell id="wmEAvZdLVxUYEZy0zLaF-32" value="" style="endArrow=classic;html=1;exitX=0.095;exitY=0.5;exitDx=0;exitDy=0;entryX=0.905;entryY=0.5;entryDx=0;entryDy=0;entryPerimeter=0;strokeWidth=4;exitPerimeter=0;strokeColor=#3333FF;" edge="1" parent="1" source="wmEAvZdLVxUYEZy0zLaF-15" target="wmEAvZdLVxUYEZy0zLaF-29">
          <mxGeometry width="50" height="50" relative="1" as="geometry">
            <mxPoint x="390" y="388.46000000000004" as="sourcePoint" />
            <mxPoint x="648.973" y="340" as="targetPoint" />
          </mxGeometry>
        </mxCell>
        <mxCell id="wmEAvZdLVxUYEZy0zLaF-33" value="&lt;font style=&quot;font-size: 16px&quot;&gt;wget zip file&lt;/font&gt;" style="text;html=1;align=center;verticalAlign=middle;resizable=0;points=[];autosize=1;rotation=-45;" vertex="1" parent="1">
          <mxGeometry x="400" y="360" width="100" height="20" as="geometry" />
        </mxCell>
        <mxCell id="wmEAvZdLVxUYEZy0zLaF-34" value="" style="edgeStyle=orthogonalEdgeStyle;rounded=0;orthogonalLoop=1;jettySize=auto;html=1;strokeWidth=2;strokeColor=#3333FF;" edge="1" parent="1">
          <mxGeometry relative="1" as="geometry">
            <mxPoint x="289.5" y="530" as="sourcePoint" />
            <mxPoint x="289.5" y="580" as="targetPoint" />
          </mxGeometry>
        </mxCell>
        <mxCell id="wmEAvZdLVxUYEZy0zLaF-35" value="&lt;font style=&quot;font-size: 15px&quot;&gt;清理过期文件&lt;/font&gt;" style="shape=mxgraph.flowchart.data;strokeWidth=2;gradientColor=none;gradientDirection=north;fontStyle=0;html=1;strokeColor=#3333FF;" vertex="1" parent="1">
          <mxGeometry x="203" y="710" width="159" height="80" as="geometry" />
        </mxCell>
        <mxCell id="wmEAvZdLVxUYEZy0zLaF-36" value="&lt;font style=&quot;font-size: 15px&quot;&gt;结束&lt;/font&gt;" style="shape=mxgraph.flowchart.terminator;strokeWidth=2;gradientColor=none;gradientDirection=north;fontStyle=0;html=1;strokeColor=#3333FF;" vertex="1" parent="1">
          <mxGeometry x="229.49" y="843.5" width="120" height="30" as="geometry" />
        </mxCell>
        <mxCell id="wmEAvZdLVxUYEZy0zLaF-37" value="" style="edgeStyle=orthogonalEdgeStyle;rounded=0;orthogonalLoop=1;jettySize=auto;html=1;strokeWidth=2;strokeColor=#3333FF;" edge="1" parent="1">
          <mxGeometry relative="1" as="geometry">
            <mxPoint x="288.99" y="790" as="sourcePoint" />
            <mxPoint x="288.99" y="840" as="targetPoint" />
          </mxGeometry>
        </mxCell>
        <mxCell id="wmEAvZdLVxUYEZy0zLaF-38" value="" style="endArrow=classic;html=1;strokeWidth=2;exitX=0;exitY=0.5;exitDx=0;exitDy=0;exitPerimeter=0;entryX=0;entryY=0.5;entryDx=0;entryDy=0;entryPerimeter=0;strokeColor=#3333FF;" edge="1" parent="1" source="wmEAvZdLVxUYEZy0zLaF-36" target="wmEAvZdLVxUYEZy0zLaF-28">
          <mxGeometry width="50" height="50" relative="1" as="geometry">
            <mxPoint x="100" y="720" as="sourcePoint" />
            <mxPoint x="140" y="380" as="targetPoint" />
            <Array as="points">
              <mxPoint x="150" y="859" />
              <mxPoint x="140" y="385" />
            </Array>
          </mxGeometry>
        </mxCell>
        <mxCell id="wmEAvZdLVxUYEZy0zLaF-39" value="&lt;font style=&quot;font-size: 18px&quot;&gt;Crontab 调度&lt;br&gt;&lt;span style=&quot;font-family: &amp;#34;helvetica&amp;#34; ; background-color: rgb(248 , 249 , 250)&quot;&gt;1 次/min&lt;/span&gt;&lt;br&gt;&lt;/font&gt;" style="edgeLabel;html=1;align=center;verticalAlign=middle;resizable=0;points=[];" vertex="1" connectable="0" parent="wmEAvZdLVxUYEZy0zLaF-38">
          <mxGeometry x="0.0373" y="2" relative="1" as="geometry">
            <mxPoint as="offset" />
          </mxGeometry>
        </mxCell>
        <mxCell id="wmEAvZdLVxUYEZy0zLaF-42" value="" style="rounded=1;whiteSpace=wrap;html=1;fillColor=#000000;" vertex="1" parent="1">
          <mxGeometry x="210" y="-6.25" width="40" height="12.5" as="geometry" />
        </mxCell>
        <mxCell id="wmEAvZdLVxUYEZy0zLaF-44" value="&lt;a title=&quot;查看该机器详情&quot; style=&quot;font-family: &amp;#34;arial&amp;#34; , sans-serif ; background-color: rgb(255 , 255 , 255)&quot;&gt;&lt;font style=&quot;font-size: 15px&quot;&gt;tc-passport-da01.tc&lt;/font&gt;&lt;/a&gt;" style="text;html=1;align=center;verticalAlign=middle;resizable=0;points=[];autosize=1;" vertex="1" parent="1">
          <mxGeometry x="260" y="-10" width="140" height="20" as="geometry" />
        </mxCell>
        <mxCell id="wmEAvZdLVxUYEZy0zLaF-45" value="" style="rounded=1;whiteSpace=wrap;html=1;strokeColor=#3333FF;fillColor=#3333FF;" vertex="1" parent="1">
          <mxGeometry x="210" y="18.5" width="40" height="12.5" as="geometry" />
        </mxCell>
        <mxCell id="wmEAvZdLVxUYEZy0zLaF-46" value="&lt;a href=&quot;http://tc-tieba-gov00.tc.baidu.com/&quot; class=&quot;external-link&quot; style=&quot;text-decoration: none ; font-family: &amp;#34;arial&amp;#34; , sans-serif ; font-style: normal ; font-weight: 400 ; letter-spacing: normal ; text-indent: 0px ; text-transform: none ; word-spacing: 0px ; background-color: rgb(255 , 255 , 255)&quot;&gt;&lt;font color=&quot;#000000&quot; style=&quot;font-size: 15px&quot;&gt;tc-tieba-gov00.tc.baidu.com&lt;/font&gt;&lt;/a&gt;" style="text;whiteSpace=wrap;html=1;" vertex="1" parent="1">
          <mxGeometry x="264" y="11" width="192" height="30" as="geometry" />
        </mxCell>
        <mxCell id="wmEAvZdLVxUYEZy0zLaF-49" value="&lt;font style=&quot;font-size: 15px&quot;&gt;发送数据&lt;/font&gt;" style="shape=mxgraph.flowchart.data;strokeWidth=2;gradientColor=none;gradientDirection=north;fontStyle=0;html=1;strokeColor=#3333FF;" vertex="1" parent="1">
          <mxGeometry x="209.99" y="580" width="159" height="80" as="geometry" />
        </mxCell>
        <mxCell id="wmEAvZdLVxUYEZy0zLaF-50" value="" style="edgeStyle=orthogonalEdgeStyle;rounded=0;orthogonalLoop=1;jettySize=auto;html=1;strokeWidth=2;strokeColor=#3333FF;" edge="1" parent="1">
          <mxGeometry relative="1" as="geometry">
            <mxPoint x="288.99" y="660" as="sourcePoint" />
            <mxPoint x="288.99" y="710" as="targetPoint" />
          </mxGeometry>
        </mxCell>
      </root>
    </mxGraphModel>
  </diagram>
</mxfile>
